<?xml version="1.0" encoding="UTF-8"?>
<svg id="Capa_1" data-name="Capa 1" xmlns="http://www.w3.org/2000/svg" viewBox="0 0 1172.48 413.46">
  <defs>
    <style>
      .cls-1 {
        fill: #133f76;
      }

      .cls-2 {
        fill: #5dc6c6;
      }
    </style>
  </defs>
  <path class="cls-1" d="m437.17,243.55c-8.85,60.84-39.18,108.94-87.98,145.8-.33.25-.72.39-1.12.42-5.71.42-11.4.21-17.06-.63-1.39-.21-1.48-.66-.26-1.37.47-.27.98-.7,1.52-1.28,62.28-67.84,60.7-176.49,5.47-248.11-14.07-17.74-29.61-32.67-48.89-45.02-35.71-22.88-82.28-32.52-123.28-19.45-1.49.47-1.84.04-1.05-1.31,28.72-49.48,91.22-64.29,143.09-48.99,11.5,3.39,23.48,8.83,35.95,16.31,26.23,15.74,47.38,36.72,63.45,62.93,26.56,41.88,37.31,91.52,30.16,140.7h0Z"/>
  <path class="cls-1" d="m334.82,314.76c-12.78,33.11-34.57,58.4-65.36,75.87-39.35,22.32-92.09,29.52-135.51,16.01-67.13-20.89-114.82-82.23-129.53-149.31C.45,239.23-.55,220.07.27,201.33c1.13-25.83,6.89-50.66,17.27-74.49,10.63-23.82,25.46-45.18,44.49-64.08C97.27,27.76,141.21,8.1,189.62,1.8c4.95-.65,9.55-1.21,13.79-1.69,2.67-.3,2.73,0,.19.86-5.48,1.89-11.12,4.6-16.91,8.14-41.22,25.21-69,66.75-75.06,115.04-3.91,37.24,2.51,72.65,19.26,106.22,1.42,2.84,2.85,5.68,4.3,8.52,1.92,3.75,4.55,7.45,6.61,11.08,1.55,2.72,1.09,3.13-1.4,1.22-13.28-10.17-24.64-23.1-34.07-38.8-15.63-26.01-22.54-54.26-20.72-84.76,1.9-29.6,12.92-58.87,30.18-82.81.06-.06.05-.16,0-.22-.07-.05-.16-.04-.22.02-20.57,18.89-35.4,42.83-44.32,69.09-9.86,28.94-11.73,59.42-7.41,88.37,6.22,41.7,28.83,80.12,62.33,105.68,40.72,31.07,98.38,39.14,142.9,10.53,16.67-10.71,29.32-24.73,37.94-42.05,13.91-27.95,16.37-62.08,5.85-91.58-1.75-4.89-4.2-9.64-6.73-14.28-.09-.17-.03-.38.14-.47.04-.02.09-.04.14-.04.37-.02.63.09.8.33.27.38.42.58.45.61,20.97,19.93,34.12,50.4,36.67,78.5,1.97,21.72-1.53,44.8-9.5,65.45Z"/>
  <path class="cls-2" d="m143.08,211.33c.04-4.33.16-8.79.85-12.98,5.86-35.43,33.23-63.47,68.92-68.4,35.61-4.92,70.19,14.31,85.36,46.79,25.08,53.66-14.61,117.18-74.1,116.36-20.12-.28-37.62-7.04-52.49-20.29-17.57-15.65-28.78-37.58-28.54-61.48h0Z"/>
  <path class="cls-1" d="m943.17,130.97c-12.48-7.1-40.71-20.76-52.86-8.64-8.85,8.82-.68,18.81,8.38,21.83,21.73,7.23,52.83,10.59,62.83,34.89,4.14,10.03,4.44,22.55,1.51,33.17-14.46,52.18-96.6,49.16-120.13,7.85-.28-.48-.26-1.08.04-1.54l11.88-18.2c.61-.92,1.82-1.24,2.8-.73,7.21,3.77,14.67,7.51,22.37,11.23,10.76,5.19,33,10.76,40.35-1.18,1.86-3.03,2.53-6.19,2.01-9.5-1.31-8.3-10.12-11.81-17.77-13.77-24.96-6.37-53.98-14.26-57.85-44.18-2.12-16.35,2.6-30.35,14.2-42,17.15-17.23,48.65-17.44,70.69-11.3,10.53,2.93,19.92,8.32,28.17,16.18.73.68.75,1.84.07,2.56-.03.03-.06.06-.1.09-.92.85-1.79,1.95-2.63,3.27-4.2,6.69-8.42,13.25-12.71,19.69-.27.41-.83.53-1.25.28h0Z"/>
  <path class="cls-1" d="m528.23,123.77l-47.69.3c-.36,0-.64-.27-.65-.63h0s-.4-35.64-.4-35.64c0-.36.27-.64.63-.65h.01l139.98-.03c.36,0,.64.28.64.64l-.04,35.61c0,.36-.28.64-.64.64l-51.72-.14c-.36,0-.64.28-.64.64h0l-.13,123.38c0,.36-.28.64-.64.64l-37.59.11c-.36,0-.64-.28-.64-.64h0l.17-123.59c0-.36-.28-.64-.64-.64h0Z"/>
  <path class="cls-1" d="m714.37,123.91v28.16c-.01.18.14.33.33.33l58.78.06c1.22,0,1.84.61,1.82,1.84l-.2,30.52c0,.26-.21.47-.47.47l-59.59.21c-.38,0-.68.31-.68.68l-.04,27.42c0,.41.33.74.73.74h0l75.64.13c.43,0,.78.36.78.78v32.88c0,.23-.11.34-.36.34l-114.5.27c-.74,0-1.35-.6-1.37-1.35h0s-.07-159.79-.07-159.79c0-.5.4-.9.88-.91.1,0,.21.01.31.06.81.28,1.72.43,2.73.41,36.77-.11,73.51-.07,110.22.13.4,0,.73.33.73.73h0l.03,34.33c0,.6-.3.9-.88.9h-74.13c-.46-.01-.68.21-.68.67h0Z"/>
  <path class="cls-1" d="m1074.8,187.71c-1.45,2.32-3.19,4.37-5.22,6.15-.33.3-.5.65-.5,1.1l.38,53.03c0,.31-.26.57-.57.57l-36.99.14c-.55,0-.84-.27-.87-.83-.28-4.62-.43-8.11-.43-10.46-.03-49.59-.03-99.32,0-149.19,0-.68.34-1.02,1.02-1.02l36.61.03c.74,0,1.11.37,1.11,1.11l.16,61.23c0,1.44.47,1.61,1.38.5,17.33-21.17,35.93-41.46,53.94-61.75.6-.68,1.47-1.07,2.38-1.05l39.29.04c1.52,0,1.75.54.67,1.62-22.37,22.24-43.27,46.24-64.64,69.15-.5.53-.54,1.35-.1,1.94,22.45,29.89,45.86,58.62,69.66,87.21.7.85.5,1.28-.61,1.28l-46.26-.1c-1.28,0-2.49-.6-3.26-1.62l-44.86-59.16c-.81-1.07-1.57-1.02-2.28.1h-.01Z"/>
  <path class="cls-1" d="m862.66,318.9l-.03,16.45c0,.55-.27.83-.81.81l-6.27-.14c-.5,0-.74-.27-.73-.77l.85-30.65c0-.36.18-.51.54-.5,8.96.58,13.29,10.66,18.13,16.66.9,1.11,1.37.95,1.38-.48l.17-14.87c0-.85.44-1.22,1.28-1.12l5.34.63c.64.09,1.12.64,1.1,1.29-.38,9.01-.37,18.08.03,27.25.11,2.56-.95,3.71-3.19,3.47-1.38-.16-2.66-.98-3.84-2.48-4.17-5.22-8.54-10.51-13.13-15.85-.54-.63-.81-.53-.81.3h0Z"/>
  <path class="cls-1" d="m1101.15,320.96l-.17-14.9c0-1.21.58-1.78,1.78-1.72l4.13.21c1.1.06,1.65.64,1.66,1.74l.26,28.46c0,1.28-1.02,2.32-2.31,2.33-.46,0-.91-.13-1.29-.38-1.95-1.32-3.73-2.99-5.31-5.01-3.34-4.25-6.92-8.32-10.69-12.19-.67-.7-1.01-.55-1.02.41l-.06,15.32c0,.57-.46,1.01-1.02,1.02l-5.95.06c-.26,0-.38-.13-.38-.37l-.21-31.4c0-.34.27-.63.61-.64h.03c3.94.04,7,1.55,9.19,4.54,3.2,4.37,6.55,8.62,10.02,12.79.5.6.74.51.74-.27h0Z"/>
  <path class="cls-1" d="m616.85,320.34c-.03,8.91-7.54,16.11-16.78,16.08s-16.69-7.29-16.66-16.19c.03-8.91,7.54-16.11,16.78-16.08h0c9.23.03,16.69,7.29,16.66,16.19Zm-13.79,9.11c4.94-1.54,7.68-6.87,6.1-11.92h0c-1.57-5.04-6.86-7.88-11.8-6.35h0c-4.94,1.54-7.68,6.87-6.1,11.92h0c1.57,5.04,6.86,7.88,11.8,6.35h0Z"/>
  <path class="cls-1" d="m666.79,312.21v3.57c0,.65.54,1.2,1.2,1.2h.03l10.98-.28c.65-.01,1.21.51,1.22,1.17v.07l-.13,3.63c-.03.63-.53,1.12-1.15,1.15l-10.76.38c-.61.01-1.11.5-1.15,1.11l-.27,3.49c-.06.65.43,1.24,1.1,1.29h.14l12.17-.41c.64-.01,1.18.47,1.22,1.11l.33,4.92c.04.65-.46,1.22-1.11,1.28h-.07l-19.85.14c-.65,0-1.18-.5-1.21-1.15l-.74-28.96c-.01-.65.51-1.21,1.17-1.22h.01l21.23-.24c.65,0,1.21.51,1.21,1.18v.13l-.43,4.55c-.06.63-.58,1.11-1.22,1.1l-12.68-.4c-.65-.03-1.21.5-1.24,1.15v.04h0Z"/>
  <path class="cls-1" d="m698.65,314.7c-2.93,5.21-.95,10.33,3.97,13.46,4.74,3,6.32.7,10.27-1.51,1.18-.65,2.65-.4,3.54.6l2.12,2.35c1.01,1.12.91,2.12-.31,3-8.78,6.27-22.94,4.21-27.18-6.55-6.46-16.35,13.6-28.53,26.42-18.16,1.28,1.04,1.37,2.18.27,3.41l-2.12,2.38c-1.14,1.27-2.25,1.24-3.32-.07-3.47-4.2-10.96-3.71-13.67,1.08h0Z"/>
  <path class="cls-1" d="m780.09,318.88l.13,16.32c0,.75-.37,1.15-1.14,1.17l-4.54.06c-.73.01-1.1-.34-1.1-1.08l-.31-30.08c0-.41.2-.67.61-.77,3.61-.88,6.15-.36,8.48,2.77,2.72,3.66,5.24,7.41,7.57,11.28.21.36.44.37.68,0l8.99-13.18c.34-.5.83-.74,1.44-.7l5.05.37c.53.04.8.34.8.87l.16,29.3c0,.54-.27.81-.81.8l-5.36-.09c-.6,0-1.07-.48-1.07-1.08l-.03-15.74c0-1.64-.46-1.78-1.35-.4l-8.17,12.45c-.31.48-.97.63-1.45.31-.2-.13-.34-.31-.43-.54-1.62-4.57-4-8.71-7.11-12.45-.2-.26-.57-.3-.83-.09-.14.11-.23.28-.21.47h0Z"/>
  <path class="cls-1" d="m822.38,331.22l-.48,3.09c-.11.7-.51,1.11-1.21,1.27l-5.62,1.18c-.37.09-.75-.16-.83-.54-.03-.11-.03-.21,0-.33,2.52-9.99,8.47-19.34,12.35-28.97,1.22-3.02,6.37-3.97,7.84-.78,4.45,9.68,8.82,19.29,13.12,28.87.43.95.13,1.49-.91,1.65-5.14.77-8.05-1.34-8.76-6.3-.07-.47-.48-.81-.95-.78l-13.56.75c-.55.04-.88.34-.98.9h0Zm4.52-7.78c-.09.27.07.54.34.63.04,0,.09.01.11.01l7.1.26c.27,0,.5-.21.5-.5,0-.07-.01-.16-.04-.21l-4.45-9.15c-.11-.24-.41-.36-.67-.23-.13.06-.21.17-.26.3l-2.63,8.89h0Z"/>
  <path class="cls-1" d="m955.22,323.74l-3.2.16c-1.47.07-2.13-.63-1.99-2.09l.24-2.33c.16-1.59,1.02-2.36,2.63-2.29l9.15.37c.65.03,1.17.55,1.2,1.21l.41,13.65c.01.65-.38,1.24-1,1.45-11.17,4-30.26,4.35-30.9-12.48-.58-15.38,17.53-22.15,28.76-13.84.75.57,1.14,1.51.97,2.45-.46,2.55-5.14,2.96-7.31,2.89-.98-.04-2.38-.5-4.17-1.38-12.48-6.19-17.49,21.51,3.06,18.54,3.12-.44,4.17-2.31,3.16-5.59-.16-.5-.48-.73-1-.7h0Z"/>
  <path class="cls-1" d="m981.98,329.57l12.73-.55c.5-.03.91.36.94.85v.03l.03,5.09c0,.48-.4.88-.88.9l-19.83.13c-.5,0-.9-.4-.9-.9h0l-.09-29.7c0-.5.4-.9.9-.9h.01l20.94.26c.5,0,.9.41.88.91v.07l-.41,4.38c-.04.47-.46.83-.92.81l-13.28-.43c-.47-.01-.88.34-.92.81l-.46,5.09c-.04.5.33.92.83.97h.11l11.8-.46c.5-.01.91.37.92.87v.07l-.24,4.01c-.03.47-.41.85-.88.85l-11.13.13c-.48,0-.87.38-.88.87l-.2,4.89c-.01.5.37.91.87.92h.06Z"/>
  <path class="cls-1" d="m524.63,326.88l-.18,8.89c0,.44-.24.68-.7.7l-5.46.11c-.46.01-.68-.2-.68-.67l-.09-30.92c0-.26.2-.46.46-.46h0c5.65.1,14.46-.75,18.78,1.15,6.92,3.04,7.29,14.44,1.04,18.64-3.27,2.21-8.22,1.75-12.22,1.65-.61,0-.92.28-.94.9Zm0-15.07v7.57c0,.64.5,1.15,1.14,1.17h3.88c2.92,0,5.29-2.06,5.31-4.64h0v-.57c0-2.58-2.36-4.65-5.28-4.67h-3.88c-.64,0-1.15.5-1.17,1.14h0Z"/>
  <path class="cls-1" d="m558.24,325.32l-.85,10.26c-.07.71-.67,1.24-1.37,1.21l-3.81-.13c-.71-.03-1.28-.61-1.28-1.32l-.04-29.67c0-.64.33-.98.97-1,3.69-.13,8.17-.14,13.42-.06,10.42.18,13,11.98,5.68,17.94-.83.68-1.01,1.88-.41,2.76l6.06,8.94c.91,1.34.55,2.02-1.05,2.05l-4.08.09c-1.44.03-2.76-.77-3.41-2.03-2.31-4.45-4.21-9.01-9.02-9.66-.47-.07-.74.14-.78.63h0Zm-.38-13.56l-.33,5.86c-.04.9.64,1.66,1.54,1.71h0l4.2.23c2.25.11,4.17-1.65,4.3-3.96l.04-.74c.13-2.31-1.61-4.27-3.86-4.4h0l-4.18-.23c-.9-.04-1.65.63-1.71,1.52h0Z"/>
  <path class="cls-1" d="m637.58,329.73c7.1-1.81,4.61-18.95,4.51-24.37,0-.4.3-.71.7-.73h.03l6.3.14c.43,0,.65.23.68.65.61,10.06.33,17.4-.84,22-2.55,9.93-16.69,11.64-23.65,4.72-1.38-1.37-1.89-3.27-.88-4.89.75-1.2,2.29-1.62,3.56-1.01,2.69,1.31,6.74,4.21,9.59,3.49Z"/>
  <path class="cls-1" d="m741.9,311.7l.14,23.62c0,.61-.48,1.1-1.1,1.1h-.03l-5.31-.13c-.58-.01-1.05-.5-1.07-1.08l-.3-23.51c0-.61-.5-1.1-1.11-1.08h-.06l-7.4.5c-.6.04-1.12-.41-1.17-1.01v-.23l.54-4.11c.07-.54.53-.95,1.08-.95l24.66-.18c.58,0,1.07.47,1.1,1.05l.14,4.67c.01.61-.46,1.11-1.07,1.12h-.14l-7.71-.87c-.6-.06-1.14.37-1.21.98v.11h0Z"/>
  <path class="cls-1" d="m913.89,329.94l-12.76.06c-.5,0-.94.3-1.12.77l-1.45,3.83c-.33.84-.94,1.29-1.84,1.37l-5.18.38c-.92.07-1.2-.33-.81-1.17l13.74-29.68c.23-.5.71-.85,1.25-.91,3.3-.37,5.65.98,7.06,4.07,3.98,8.75,8,17.77,12.04,27.09.43.98.11,1.37-.92,1.18l-5.25-.97c-1.07-.18-1.82-.78-2.23-1.78l-1.49-3.56c-.18-.46-.53-.68-1.02-.68h0Zm-9.92-7.58c-.17.44.06.94.5,1.1.09.03.17.04.26.06l5.42.2c.47.01.87-.36.88-.83,0-.11-.01-.24-.06-.34l-2.85-7c-.17-.44-.67-.65-1.11-.47-.23.09-.4.27-.48.5l-2.56,6.79Z"/>
  <path class="cls-1" d="m1012.87,319.61v15.95c.01.44-.34.8-.78.8l-5.55-.06c-.36,0-.53-.17-.53-.53l.17-30.25c0-.38.18-.6.57-.64,4.15-.47,6.79.53,9.22,4.15,2.12,3.2,4.27,6.39,6.43,9.56.11.17.36.23.53.1.06-.04.1-.1.14-.16,2.28-4.72,8.32-16.46,15.22-13.49.41.17.67.57.68,1.02l.5,29.18c0,.77-.37,1.14-1.14,1.12l-4.91-.1c-.65-.01-1-.36-1.02-1.01l-.54-15.4c-.07-1.78-.58-1.91-1.54-.41l-7.26,11.31c-.28.44-.87.58-1.31.3-.13-.09-.24-.2-.33-.34l-6.76-11.62c-1.21-2.08-1.81-1.91-1.81.5h0Z"/>
  <path class="cls-1" d="m1056.83,329.09l12.99-.14c.55,0,1.01.44,1.02,1h0l.06,4.82c0,.55-.44,1.01-1,1.02h0l-19.75.28c-.55,0-1.01-.44-1.02-1h0l-.54-29.28c-.01-.55.43-1.02.98-1.04h.03l20.26-.14c.55,0,1.01.44,1.02,1v.03l-.07,4.57c0,.55-.47,1.01-1.02,1h0l-13.02-.27c-.55-.01-1.02.43-1.04.98v.04l.1,4.28c0,.55.47,1.01,1.02,1h.06l11.71-.87c.55-.04,1.04.37,1.08.92v.18l-.4,4.31c-.06.51-.48.91-1.01.91l-11.07-.09c-.53,0-.95.4-1.01.91l-.41,4.47c-.04.55.37,1.04.92,1.1h.1,0Z"/>
  <path class="cls-1" d="m1117.5,310.67l-.11-4.99c0-.4.31-.73.71-.74h.01l25.53-.17c.38,0,.7.3.73.68l.31,4.8c.03.4-.28.74-.68.77h-.03l-8.92.09c-.4,0-.71.33-.71.73l.27,23.72c0,.38-.31.71-.7.73l-5.73.17c-.4,0-.73-.31-.74-.71h0l-.58-24.15c0-.4-.34-.73-.74-.71h-.03l-7.81.51c-.4.03-.74-.28-.77-.68v-.03h0Z"/>
</svg>