<?xml version="1.0" encoding="UTF-8"?>
<svg id="Capa_1" data-name="Capa 1" xmlns="http://www.w3.org/2000/svg" viewBox="0 0 487.04 661.64">
  <defs>
    <style>
      .cls-1 {
        fill: #133f76;
      }

      .cls-2 {
        fill: #5dc6c6;
      }
    </style>
  </defs>
  <path class="cls-1" d="m469.61,243.55c-8.85,60.84-39.18,108.94-87.98,145.8-.33.25-.72.39-1.12.42-5.71.42-11.4.21-17.06-.63-1.39-.21-1.48-.66-.26-1.37.47-.27.98-.7,1.52-1.28,62.28-67.84,60.7-176.49,5.47-248.11-14.07-17.74-29.61-32.67-48.89-45.02-35.71-22.88-82.28-32.52-123.28-19.45-1.49.47-1.84.04-1.05-1.31,28.72-49.48,91.22-64.29,143.09-48.99,11.5,3.39,23.48,8.83,35.95,16.31,26.23,15.74,47.38,36.72,63.45,62.93,26.56,41.88,37.31,91.52,30.16,140.7Z"/>
  <path class="cls-1" d="m367.26,314.76c-12.78,33.11-34.57,58.4-65.36,75.87-39.35,22.32-92.09,29.52-135.51,16.01-67.13-20.89-114.82-82.23-129.53-149.31-3.97-18.1-4.97-37.26-4.15-56,1.13-25.83,6.89-50.66,17.27-74.49,10.63-23.82,25.46-45.18,44.49-64.08C129.71,27.76,173.65,8.1,222.06,1.8c4.95-.65,9.55-1.21,13.79-1.69,2.67-.3,2.73-.01.19.86-5.48,1.89-11.12,4.6-16.91,8.14-41.22,25.21-69,66.75-75.06,115.04-3.91,37.24,2.51,72.65,19.26,106.22,1.42,2.84,2.85,5.68,4.3,8.52,1.92,3.75,4.55,7.45,6.61,11.08,1.55,2.72,1.09,3.13-1.4,1.22-13.28-10.17-24.64-23.1-34.07-38.8-15.63-26.01-22.54-54.26-20.72-84.76,1.9-29.6,12.92-58.87,30.18-82.81.06-.06.05-.16-.01-.22-.07-.05-.16-.04-.22.02-20.57,18.89-35.4,42.83-44.32,69.09-9.86,28.94-11.73,59.42-7.41,88.37,6.22,41.7,28.83,80.12,62.33,105.68,40.72,31.07,98.38,39.14,142.9,10.53,16.67-10.71,29.32-24.73,37.94-42.05,13.91-27.95,16.37-62.08,5.85-91.58-1.75-4.89-4.2-9.64-6.73-14.28-.09-.17-.03-.38.14-.47.04-.02.09-.04.14-.04.37-.02.63.09.8.33.27.38.42.58.45.61,20.97,19.93,34.12,50.4,36.67,78.5,1.97,21.72-1.53,44.8-9.5,65.45Z"/>
  <path class="cls-2" d="m175.52,211.33c.04-4.33.16-8.79.85-12.98,5.86-35.43,33.23-63.47,68.92-68.4,35.61-4.92,70.19,14.31,85.36,46.79,25.08,53.66-14.61,117.18-74.1,116.36-20.12-.28-37.62-7.04-52.49-20.29-17.57-15.65-28.78-37.58-28.54-61.48Z"/>
  <path class="cls-1" d="m325.88,516.77c-8.77-4.99-28.61-14.59-37.15-6.07-6.22,6.2-.48,13.22,5.89,15.34,15.27,5.08,37.13,7.44,44.16,24.52,2.91,7.05,3.12,15.85,1.06,23.31-10.16,36.67-67.89,34.55-84.43,5.52-.2-.34-.18-.76.03-1.08l8.35-12.79c.43-.65,1.28-.87,1.97-.51,5.07,2.65,10.31,5.28,15.72,7.89,7.56,3.65,23.19,7.56,28.36-.83,1.31-2.13,1.78-4.35,1.41-6.68-.92-5.83-7.11-8.3-12.49-9.68-17.54-4.48-37.94-10.02-40.66-31.05-1.49-11.49,1.83-21.33,9.98-29.52,12.05-12.11,34.19-12.26,49.68-7.94,7.4,2.06,14,5.85,19.8,11.37.51.48.53,1.29.05,1.8-.02.02-.04.04-.07.06-.65.6-1.26,1.37-1.85,2.3-2.95,4.7-5.92,9.31-8.93,13.84-.19.29-.58.37-.88.2Z"/>
  <path class="cls-1" d="m34.26,511.71l-33.52.21c-.25,0-.45-.19-.46-.44,0,0,0,0,0-.01L0,486.43c0-.25.19-.45.44-.46,0,0,0,0,.01,0l98.38-.02c.25,0,.45.2.45.45l-.03,25.03c0,.25-.2.45-.45.45l-36.35-.1c-.25,0-.45.2-.45.45h0l-.09,86.71c0,.25-.2.45-.45.45l-26.42.08c-.25,0-.45-.2-.45-.45h0l.12-86.86c0-.25-.2-.45-.45-.45h0Z"/>
  <path class="cls-1" d="m165.08,511.81v19.79c-.01.13.1.23.23.23l41.31.04c.86,0,1.29.43,1.28,1.29l-.14,21.45c0,.18-.15.33-.33.33l-41.88.15c-.27,0-.48.22-.48.48l-.03,19.27c0,.29.23.52.51.52h0l53.16.09c.3,0,.55.25.55.55v23.11c0,.16-.08.24-.25.24l-80.47.19c-.52,0-.95-.42-.96-.95,0,0,0,0,0-.01l-.05-112.29c0-.35.28-.63.62-.64.07,0,.15.01.22.04.57.2,1.21.3,1.92.29,25.84-.08,51.66-.05,77.46.09.28,0,.51.23.51.51h0l.02,24.13c0,.42-.21.63-.62.63h-52.1c-.32-.01-.48.15-.48.47Z"/>
  <path class="cls-1" d="m418.39,556.65c-1.02,1.63-2.24,3.07-3.67,4.32-.23.21-.35.46-.35.77l.27,37.27c0,.22-.18.4-.4.4l-26,.1c-.39,0-.59-.19-.61-.58-.2-3.25-.3-5.7-.3-7.35-.02-34.85-.02-69.8,0-104.85,0-.48.24-.72.72-.72l25.73.02c.52,0,.78.26.78.78l.11,43.03c0,1.01.33,1.13.97.35,12.18-14.88,25.25-29.14,37.91-43.4.42-.48,1.03-.75,1.67-.74l27.61.03c1.07,0,1.23.38.47,1.14-15.72,15.63-30.41,32.5-45.43,48.6-.35.37-.38.95-.07,1.36,15.78,21.01,32.23,41.2,48.96,61.29.49.6.35.9-.43.9l-32.51-.07c-.9,0-1.75-.42-2.29-1.14l-31.53-41.58c-.57-.75-1.1-.72-1.6.07Z"/>
  <path class="cls-1" d="m269.3,648.85l-.02,11.56c0,.39-.19.58-.57.57l-4.41-.1c-.35,0-.52-.19-.51-.54l.6-21.54c0-.25.13-.36.38-.35,6.3.41,9.34,7.49,12.74,11.71.63.78.96.67.97-.34l.12-10.45c0-.6.31-.86.9-.79l3.75.44c.45.06.79.45.77.91-.27,6.33-.26,12.71.02,19.15.08,1.8-.67,2.61-2.24,2.44-.97-.11-1.87-.69-2.7-1.74-2.93-3.67-6-7.39-9.23-11.14-.38-.44-.57-.37-.57.21Z"/>
  <path class="cls-1" d="m436.91,650.3l-.12-10.47c0-.85.41-1.25,1.25-1.21l2.9.15c.77.04,1.16.45,1.17,1.22l.18,20c0,.9-.72,1.63-1.62,1.64-.32,0-.64-.09-.91-.27-1.37-.93-2.62-2.1-3.73-3.52-2.35-2.99-4.86-5.85-7.51-8.57-.47-.49-.71-.39-.72.29l-.04,10.77c0,.4-.32.71-.72.72l-4.18.04c-.18,0-.27-.09-.27-.26l-.15-22.07c0-.24.19-.44.43-.45,0,0,.01,0,.02,0,2.77.03,4.92,1.09,6.46,3.19,2.25,3.07,4.6,6.06,7.04,8.99.35.42.52.36.52-.19Z"/>
  <path class="cls-1" d="m96.54,649.86c-.02,6.26-5.3,11.32-11.79,11.3-6.49-.02-11.73-5.12-11.71-11.38.02-6.26,5.3-11.32,11.79-11.3h0c6.49.02,11.73,5.12,11.71,11.38Zm-9.69,6.4c3.47-1.08,5.4-4.83,4.29-8.38h0c-1.1-3.54-4.82-5.54-8.29-4.46h0c-3.47,1.08-5.4,4.83-4.29,8.38h0c1.1,3.54,4.82,5.54,8.29,4.46h0Z"/>
  <path class="cls-1" d="m131.64,644.15v2.51c0,.46.38.84.84.84,0,0,.01,0,.02,0l7.72-.2c.46-.01.85.36.86.82,0,.02,0,.03,0,.05l-.09,2.55c-.02.44-.37.79-.81.81l-7.56.27c-.43.01-.78.35-.81.78l-.19,2.45c-.04.46.3.87.77.91.03,0,.07,0,.1,0l8.55-.29c.45-.01.83.33.86.78l.23,3.46c.03.46-.32.86-.78.9-.02,0-.03,0-.05,0l-13.95.1c-.46,0-.83-.35-.85-.81l-.52-20.35c-.01-.46.36-.85.82-.86h.01s14.92-.17,14.92-.17c.46,0,.85.36.85.83,0,.03,0,.06,0,.09l-.3,3.2c-.04.44-.41.78-.86.77l-8.91-.28c-.46-.02-.85.35-.87.81,0,.01,0,.02,0,.03Z"/>
  <path class="cls-1" d="m154.03,645.9c-2.06,3.66-.67,7.26,2.79,9.46,3.33,2.11,4.44.49,7.22-1.06.83-.46,1.86-.28,2.49.42l1.49,1.65c.71.79.64,1.49-.22,2.11-6.17,4.41-16.12,2.96-19.1-4.6-4.54-11.49,9.56-20.05,18.57-12.76.9.73.96,1.53.19,2.4l-1.49,1.67c-.8.89-1.58.87-2.33-.05-2.44-2.95-7.7-2.61-9.61.76Z"/>
  <path class="cls-1" d="m211.27,648.84l.09,11.47c0,.53-.26.81-.8.82l-3.19.04c-.51.01-.77-.24-.77-.76l-.22-21.14c0-.29.14-.47.43-.54,2.54-.62,4.32-.25,5.96,1.95,1.91,2.57,3.68,5.21,5.32,7.93.15.25.31.26.48,0l6.32-9.26c.24-.35.58-.52,1.01-.49l3.55.26c.37.03.56.24.56.61l.11,20.59c0,.38-.19.57-.57.56l-3.77-.06c-.42,0-.75-.34-.75-.76l-.02-11.06c0-1.15-.32-1.25-.95-.28l-5.74,8.75c-.22.34-.68.44-1.02.22-.14-.09-.24-.22-.3-.38-1.14-3.21-2.81-6.12-5-8.75-.14-.18-.4-.21-.58-.06-.1.08-.16.2-.15.33Z"/>
  <path class="cls-1" d="m240.99,657.51l-.34,2.17c-.08.49-.36.78-.85.89l-3.95.83c-.26.06-.53-.11-.58-.38-.02-.08-.02-.15,0-.23,1.77-7.02,5.95-13.59,8.68-20.36.86-2.12,4.48-2.79,5.51-.55,3.13,6.8,6.2,13.56,9.22,20.29.3.67.09,1.05-.64,1.16-3.61.54-5.66-.94-6.16-4.43-.05-.33-.34-.57-.67-.55l-9.53.53c-.39.03-.62.24-.69.63Zm3.18-5.47c-.06.19.05.38.24.44.03,0,.06.01.08.01l4.99.18c.19,0,.35-.15.35-.35,0-.05-.01-.11-.03-.15l-3.13-6.43c-.08-.17-.29-.25-.47-.16-.09.04-.15.12-.18.21l-1.85,6.25Z"/>
  <path class="cls-1" d="m334.35,652.25l-2.25.11c-1.03.05-1.5-.44-1.4-1.47l.17-1.64c.11-1.12.72-1.66,1.85-1.61l6.43.26c.46.02.82.39.84.85l.29,9.59c.01.46-.27.87-.7,1.02-7.85,2.81-21.27,3.06-21.72-8.77-.41-10.81,12.32-15.57,20.21-9.73.53.4.8,1.06.68,1.72-.32,1.79-3.61,2.08-5.14,2.03-.69-.03-1.67-.35-2.93-.97-8.77-4.35-12.29,15.12,2.15,13.03,2.19-.31,2.93-1.62,2.22-3.93-.11-.35-.34-.51-.7-.49Z"/>
  <path class="cls-1" d="m353.16,656.35l8.95-.39c.35-.02.64.25.66.6,0,0,0,.01,0,.02l.02,3.58c0,.34-.28.62-.62.63l-13.94.09c-.35,0-.63-.28-.63-.63h0l-.06-20.87c0-.35.28-.63.63-.63,0,0,0,0,.01,0l14.72.18c.35,0,.63.29.62.64,0,.02,0,.04,0,.05l-.29,3.08c-.03.33-.32.58-.65.57l-9.33-.3c-.33-.01-.62.24-.65.57l-.32,3.58c-.03.35.23.65.58.68.03,0,.06,0,.08,0l8.29-.32c.35-.01.64.26.65.61,0,.02,0,.03,0,.05l-.17,2.82c-.02.33-.29.6-.62.6l-7.82.09c-.34,0-.61.27-.62.61l-.14,3.44c-.01.35.26.64.61.65.01,0,.03,0,.04,0Z"/>
  <path class="cls-1" d="m31.73,654.46l-.13,6.25c0,.31-.17.48-.49.49l-3.84.08c-.32.01-.48-.14-.48-.47l-.06-21.73c0-.18.14-.32.32-.32h0c3.97.07,10.16-.53,13.2.81,4.86,2.14,5.12,10.15.73,13.1-2.3,1.55-5.78,1.23-8.59,1.16-.43,0-.65.2-.66.63Zm0-10.59v5.32c0,.45.35.81.8.82h2.73c2.05,0,3.72-1.45,3.73-3.26h0v-.4c0-1.81-1.66-3.27-3.71-3.28h-2.73c-.45,0-.81.35-.82.8h0Z"/>
  <path class="cls-1" d="m55.35,653.36l-.6,7.21c-.05.5-.47.87-.96.85l-2.68-.09c-.5-.02-.9-.43-.9-.93l-.03-20.85c0-.45.23-.69.68-.7,2.59-.09,5.74-.1,9.43-.04,7.32.13,9.14,8.42,3.99,12.61-.58.48-.71,1.32-.29,1.94l4.26,6.28c.64.94.39,1.42-.74,1.44l-2.87.06c-1.01.02-1.94-.54-2.4-1.43-1.62-3.13-2.96-6.33-6.34-6.79-.33-.05-.52.1-.55.44Zm-.27-9.53l-.23,4.12c-.03.63.45,1.17,1.08,1.2,0,0,0,0,0,0l2.95.16c1.58.08,2.93-1.16,3.02-2.78l.03-.52c.09-1.62-1.13-3-2.71-3.09,0,0,0,0,0,0l-2.94-.16c-.63-.03-1.16.44-1.2,1.07Z"/>
  <path class="cls-1" d="m111.11,656.46c4.99-1.27,3.24-13.32,3.17-17.13,0-.28.21-.5.49-.51,0,0,.01,0,.02,0l4.43.1c.3,0,.46.16.48.46.43,7.07.23,12.23-.59,15.46-1.79,6.98-11.73,8.18-16.62,3.32-.97-.96-1.33-2.3-.62-3.44.53-.84,1.61-1.14,2.5-.71,1.89.92,4.74,2.96,6.74,2.45Z"/>
  <path class="cls-1" d="m184.43,643.79l.1,16.6c0,.43-.34.77-.77.77,0,0-.01,0-.02,0l-3.73-.09c-.41-.01-.74-.35-.75-.76l-.21-16.52c0-.43-.35-.77-.78-.76-.01,0-.03,0-.04,0l-5.2.35c-.42.03-.79-.29-.82-.71,0-.05,0-.11,0-.16l.38-2.89c.05-.38.37-.67.76-.67l17.33-.13c.41,0,.75.33.77.74l.1,3.28c.01.43-.32.78-.75.79-.03,0-.07,0-.1,0l-5.42-.61c-.42-.04-.8.26-.85.69,0,.03,0,.06,0,.08Z"/>
  <path class="cls-1" d="m305.3,656.61l-8.97.04c-.35,0-.66.21-.79.54l-1.02,2.69c-.23.59-.66.91-1.29.96l-3.64.27c-.65.05-.84-.23-.57-.82l9.66-20.86c.16-.35.5-.6.88-.64,2.32-.26,3.97.69,4.96,2.86,2.8,6.15,5.62,12.49,8.46,19.04.3.69.08.96-.65.83l-3.69-.68c-.75-.13-1.28-.55-1.57-1.25l-1.05-2.5c-.13-.32-.37-.48-.72-.48Zm-6.97-5.33c-.12.31.04.66.35.77.06.02.12.03.18.04l3.81.14c.33.01.61-.25.62-.58,0-.08-.01-.17-.04-.24l-2-4.92c-.12-.31-.47-.46-.78-.33-.16.06-.28.19-.34.35l-1.8,4.77Z"/>
  <path class="cls-1" d="m374.87,649.35v11.21c.01.31-.24.56-.55.56l-3.9-.04c-.25,0-.37-.12-.37-.37l.12-21.26c0-.27.13-.42.4-.45,2.92-.33,4.77.37,6.48,2.92,1.49,2.25,3,4.49,4.52,6.72.08.12.25.16.37.07.04-.03.07-.07.1-.11,1.6-3.32,5.85-11.57,10.7-9.48.29.12.47.4.48.72l.35,20.51c0,.54-.26.8-.8.79l-3.45-.07c-.46-.01-.7-.25-.72-.71l-.38-10.82c-.05-1.25-.41-1.34-1.08-.29l-5.1,7.95c-.2.31-.61.41-.92.21-.09-.06-.17-.14-.23-.24l-4.75-8.17c-.85-1.46-1.27-1.34-1.27.35Z"/>
  <path class="cls-1" d="m405.76,656.01l9.13-.1c.39,0,.71.31.72.7h0s.04,3.39.04,3.39c0,.39-.31.71-.7.72h0l-13.88.2c-.39,0-.71-.31-.72-.7h0s-.38-20.58-.38-20.58c-.01-.39.3-.72.69-.73,0,0,.01,0,.02,0l14.24-.1c.39,0,.71.31.72.7,0,0,0,.01,0,.02l-.05,3.21c0,.39-.33.71-.72.7h0l-9.15-.19c-.39-.01-.72.3-.73.69,0,.01,0,.02,0,.03l.07,3.01c0,.39.33.71.72.7.01,0,.03,0,.04,0l8.23-.61c.39-.03.73.26.76.65,0,.04,0,.08,0,.13l-.28,3.03c-.04.36-.34.64-.71.64l-7.78-.06c-.37,0-.67.28-.71.64l-.29,3.14c-.03.39.26.73.65.77.02,0,.05,0,.07,0Z"/>
  <path class="cls-1" d="m448.4,643.07l-.08-3.51c0-.28.22-.51.5-.52,0,0,0,0,.01,0l17.94-.12c.27,0,.49.21.51.48l.22,3.37c.02.28-.2.52-.48.54,0,0-.01,0-.02,0l-6.27.06c-.28,0-.5.23-.5.51l.19,16.67c0,.27-.22.5-.49.51l-4.03.12c-.28,0-.51-.22-.52-.5h0s-.41-16.97-.41-16.97c0-.28-.24-.51-.52-.5,0,0-.01,0-.02,0l-5.49.36c-.28.02-.52-.2-.54-.48,0,0,0-.01,0-.02Z"/>
</svg>